<?xml version="1.0" encoding="UTF-8"?>
<svg width="37px" height="37px" viewBox="0 0 37 37" version="1.1" xmlns="http://www.w3.org/2000/svg" xmlns:xlink="http://www.w3.org/1999/xlink">
    <title>A11A12F7-E886-415F-A25A-D61A88ABD3CC</title>
    <defs>
        <path d="M27.2349077,3.99134283 L18.2329674,0.0513689424 C18.0799684,-0.0186305937 17.9059695,-0.0186305937 17.7529705,0.0513689424 L8.75103019,3.99134283 C8.53303164,4.09134217 8.39103258,4.30134078 8.39103258,4.54133919 L8.39103258,13.9612768 C8.39403256,16.0812627 9.41202581,18.0612496 11.1280144,19.3012414 L17.3489732,23.7912116 C17.7329707,24.0712098 18.2529672,24.0712098 18.6369647,23.7912116 L24.8589234,19.3012414 C26.5739121,18.0612496 27.5919053,16.0812627 27.5949053,13.9612768 L27.5949053,4.54133919 C27.5949053,4.30134078 27.4539063,4.09134217 27.2349077,3.99134283 Z M26.3949133,13.9612768 C26.3919133,15.6912653 25.5599188,17.3212545 24.1559281,18.3312478 L17.9929689,22.7812183 L11.8300098,18.3312478 C10.4260191,17.3212545 9.59402461,15.6912653 9.59102463,13.9612768 L9.59102463,4.9313366 L17.9929689,1.25136099 L26.3949133,4.9313366 L26.3949133,13.9612768 Z M17.7529705,2.67135158 L11.1520143,5.56133243 C10.9330157,5.66133177 10.7920167,5.87133037 10.7920167,6.11132878 L10.7920167,13.9612768 C10.7940167,15.3112678 11.4410124,16.5712595 12.5320051,17.3612542 L17.6419713,21.0412298 C17.8519699,21.2012288 18.134968,21.2012288 18.3449666,21.0412298 L23.4549328,17.3612542 C24.5459255,16.5712595 25.1929212,15.3112678 25.1949212,13.9612768 L25.1949212,6.11132878 C25.1949212,5.87133037 25.0539222,5.66133177 24.8349236,5.56133243 L18.2339674,2.67135158 C18.0809684,2.60135204 17.9069695,2.60135204 17.7529705,2.67135158 Z M23.9949292,6.5013262 L23.9949292,13.9612768 C23.9929292,14.9212704 23.5309322,15.8212644 22.7529374,16.3912607 L17.9939689,19.8212379 L13.2350005,16.3912607 C12.4560056,15.8212644 11.9940087,14.9212704 11.9920087,13.9612768 L11.9920087,6.5013262 L17.9939689,3.88134356 L23.9949292,6.5013262 Z M3.6640639,16.8912573 L4.9620553,19.9212373 C5.9730486,19.2512417 7.30403978,19.3212412 8.24103357,20.0912361 C9.25102688,21.02123 10.4130192,21.7612251 11.6770108,22.2912216 C12.4720055,22.5812196 13.1670009,23.0812163 13.6769975,23.7512119 C14.5469918,24.8812044 15.0109887,26.2611953 14.9929888,27.6811858 L14.9929888,28.8011784 C15.6559844,28.8011784 16.1929809,29.3411748 16.1929809,30.0011705 L16.1929809,34.8011387 C16.1929809,35.4611343 15.6559844,36.0011307 14.9929888,36.0011307 L8.39103258,36.0011307 C7.72803697,36.0011307 7.19104053,35.4611343 7.19104053,34.8011387 L7.19104053,30.0011705 C7.19204052,29.7011725 7.30803976,29.4011744 7.51603838,29.1811759 L3.81806288,25.4912004 C3.27406649,24.941204 2.83206942,24.3112082 2.51507152,23.6012129 L0.163087104,18.4312471 C-0.112911067,17.8112513 -0.0349115837,17.0812561 0.369085739,16.5312597 C0.772083068,15.9812634 1.44007864,15.6812654 2.11907414,15.7612648 C2.79906964,15.8312644 3.38706574,16.2612615 3.6640639,16.8912573 Z M8.39103258,34.8011387 L14.9929888,34.8011387 L14.9929888,30.0011705 L8.39103258,30.0011705 L8.39103258,34.8011387 Z M13.7919968,27.6811858 C13.8109967,26.5311935 13.4399991,25.4112009 12.7400038,24.5012069 C12.3730062,24.0112102 11.8720095,23.6412126 11.2970133,23.431214 C9.88702267,22.8612178 8.59003126,22.0412232 7.4680387,21.01123 C6.90704241,20.5512331 6.10104775,20.5312332 5.52505157,20.9812302 C5.74105014,21.3012281 5.9890485,21.6012261 6.26404667,21.8812243 L9.0060285,24.6212061 C9.16202747,24.7712051 9.22402706,24.9912037 9.17002742,25.2012023 C9.11502778,25.4112009 8.95102887,25.5811998 8.74103026,25.6311994 C8.53103165,25.691199 8.30803313,25.6211995 8.15703413,25.4712005 L5.41605229,22.7312186 C4.77305655,22.081223 4.25905996,21.3312279 3.90206233,20.4912335 L2.56007122,17.3612542 C2.44807196,17.101256 2.19007367,16.9312571 1.90507556,16.9312571 C1.66207717,16.9312571 1.43607867,17.0512563 1.30507954,17.251255 C1.1740804,17.4612536 1.15508053,17.7212518 1.25507987,17.9412504 L3.60706428,23.1112161 C3.86506257,23.6812124 4.22406019,24.2012089 4.66605726,24.641206 L8.83002967,28.8011784 L13.7919968,28.8011784 L13.7919968,27.6811858 Z M13.1930008,31.8011585 L12.5930047,31.8011585 C12.2610069,31.8011585 11.9930087,32.0711568 11.9930087,32.4011546 C11.9930087,32.7311524 12.2610069,33.0011506 12.5930047,33.0011506 L13.1930008,33.0011506 C13.5239986,33.0011506 13.7929968,32.7311524 13.7929968,32.4011546 C13.7929968,32.0711568 13.5239986,31.8011585 13.1930008,31.8011585 Z M35.8238508,18.4312471 L33.4728664,23.6012129 C33.1548685,24.3112082 32.7138714,24.941204 32.169875,25.4912004 L28.4708995,29.1811759 C28.6788981,29.4011744 28.7958974,29.7011725 28.7958974,30.0011705 L28.7958974,34.8011387 C28.7958974,35.4611343 28.2589009,36.0011307 27.5959053,36.0011307 L20.9949491,36.0011307 C20.3319534,36.0011307 19.793957,35.4611343 19.793957,34.8011387 L19.793957,30.0011705 C19.793957,29.3411748 20.3319534,28.8011784 20.9949491,28.8011784 L20.9949491,27.6811858 C20.9759492,26.2611953 21.4399461,24.8812044 22.3099403,23.7512119 C22.819937,23.0812163 23.5159323,22.5712197 24.3099271,22.2912216 C25.5739187,21.7612251 26.736911,21.02123 27.7459043,20.0912361 C28.6818981,19.3112413 30.0138893,19.2412418 31.0288826,19.9112373 L32.323874,16.8912573 C32.5928722,16.2512616 33.1838683,15.8112645 33.8708637,15.731265 C34.5568592,15.6512656 35.2318547,15.9512636 35.636852,16.5112599 C36.0418493,17.0712562 36.1138489,17.8012513 35.8238508,18.4312471 Z M20.9949491,34.8011387 L27.5959053,34.8011387 L27.5959053,30.0011705 L20.9949491,30.0011705 L20.9949491,34.8011387 Z M22.1949411,28.8011784 L27.1569082,28.8011784 L31.3188806,24.641206 C31.7608777,24.2012089 32.1198753,23.6812124 32.3778736,23.1112161 L34.729858,17.9412504 C34.8298574,17.7212518 34.8108575,17.4612536 34.6798584,17.2612549 C34.5488592,17.0512563 34.3228607,16.9312571 34.0798623,16.9312571 C33.7948642,16.9312571 33.5368659,17.101256 33.4248667,17.3612542 L32.0828756,20.4912335 C31.7258779,21.3312279 31.2118813,22.081223 30.5688856,22.7312186 L27.8279038,25.4712005 C27.5919053,25.691199 27.2179078,25.691199 26.9859094,25.4612006 C26.7549109,25.2312021 26.7519109,24.8512046 26.9789094,24.6212061 L29.7208912,21.8812243 C29.9978894,21.6012261 30.2468877,21.3012281 30.4638863,20.9712303 C29.8858901,20.5312332 29.0768955,20.5412332 28.5168992,21.01123 C27.3949066,22.0412232 26.0979152,22.8612178 24.6869246,23.431214 C24.1139284,23.6412126 23.6129317,24.0112102 23.2469341,24.5012069 C22.5479388,25.4112009 22.1769412,26.5311935 22.1949411,27.6811858 L22.1949411,28.8011784 Z M23.3949332,31.8011585 L22.7949371,31.8011585 C22.4629393,31.8011585 22.1949411,32.0711568 22.1949411,32.4011546 C22.1949411,32.7311524 22.4629393,33.0011506 22.7949371,33.0011506 L23.3949332,33.0011506 C23.725931,33.0011506 23.9949292,32.7311524 23.9949292,32.4011546 C23.9949292,32.0711568 23.725931,31.8011585 23.3949332,31.8011585 Z M13.911996,12.8412842 C14.1109947,12.571286 14.4869922,12.5212863 14.7519904,12.721285 L16.6449779,14.1412756 L21.0939484,7.47131977 C21.2129476,7.29132096 21.4179463,7.19132163 21.6319448,7.20132156 C21.8459434,7.21132149 22.0369422,7.34132063 22.1319415,7.53131937 C22.2269409,7.73131805 22.211941,7.95131659 22.0929418,8.1313154 L17.2919736,15.3312677 C17.2009742,15.4712668 17.0569752,15.5612662 16.8939762,15.591266 C16.8609765,15.6012659 16.8269767,15.6012659 16.7929769,15.6012659 C16.6629778,15.6012659 16.5359786,15.5612662 16.4329793,15.4812667 L14.0319952,13.6812786 C13.766997,13.4812799 13.7129973,13.1012825 13.911996,12.8412842 Z" id="path-1"></path>
    </defs>
    <g id="Page-1" stroke="none" stroke-width="1" fill="none" fill-rule="evenodd">
        <g id="Siphome---Dekstop-1440" transform="translate(-656.000000, -1779.000000)">
            <g id="features" transform="translate(105.500000, 802.000000)">
                <g id="card" transform="translate(541.500000, 690.000000)">
                    <g id="Card/Plain/Align-Left" transform="translate(0.000000, 262.000000)">
                        <g id="ico-threat" transform="translate(0.000000, 16.000000)">
                            <g id="Icon/Line/Prevention" transform="translate(9.500000, 9.500000)">
                                <mask id="mask-2" fill="white">
                                    <use xlink:href="#path-1"></use>
                                </mask>
                                <use id="Shape" fill="#1ECE7A" xlink:href="#path-1"></use>
                            </g>
                        </g>
                    </g>
                </g>
            </g>
        </g>
    </g>
</svg>