<?xml version="1.0" encoding="UTF-8"?>
<svg width="242px" height="168px" viewBox="0 0 242 168" version="1.1" xmlns="http://www.w3.org/2000/svg" xmlns:xlink="http://www.w3.org/1999/xlink">
    <title>5D155A3B-E983-4097-9B3A-0DB16C6914C1</title>
    <g id="Page-1" stroke="none" stroke-width="1" fill="none" fill-rule="evenodd" opacity="0.4">
        <g id="Siphome---Dekstop-1440" transform="translate(-1183.000000, -802.000000)" fill="#262B35" fill-rule="nonzero">
            <g id="features" transform="translate(105.500000, 802.000000)">
                <g id="dot" transform="translate(1078.000000, 0.000000)">
                    <circle id="Oval" transform="translate(2.090000, 165.907000) rotate(-90.000000) translate(-2.090000, -165.907000) " cx="2.09" cy="165.907" r="2.09302"></circle>
                    <circle id="Oval" transform="translate(20.230000, 165.907000) rotate(-90.000000) translate(-20.230000, -165.907000) " cx="20.23" cy="165.907" r="2.09302"></circle>
                    <circle id="Oval" transform="translate(38.370000, 165.907000) rotate(-90.000000) translate(-38.370000, -165.907000) " cx="38.37" cy="165.907" r="2.09302"></circle>
                    <circle id="Oval" transform="translate(56.510000, 165.907000) rotate(-90.000000) translate(-56.510000, -165.907000) " cx="56.51" cy="165.907" r="2.09302"></circle>
                    <circle id="Oval" transform="translate(74.650000, 165.907000) rotate(-90.000000) translate(-74.650000, -165.907000) " cx="74.65" cy="165.907" r="2.09302"></circle>
                    <circle id="Oval" transform="translate(92.790000, 165.907000) rotate(-90.000000) translate(-92.790000, -165.907000) " cx="92.79" cy="165.907" r="2.09302"></circle>
                    <circle id="Oval" transform="translate(110.930000, 165.907000) rotate(-90.000000) translate(-110.930000, -165.907000) " cx="110.93" cy="165.907" r="2.09302"></circle>
                    <circle id="Oval" transform="translate(129.070000, 165.907000) rotate(-90.000000) translate(-129.070000, -165.907000) " cx="129.07" cy="165.907" r="2.09302"></circle>
                    <circle id="Oval" transform="translate(147.210000, 165.907000) rotate(-90.000000) translate(-147.210000, -165.907000) " cx="147.21" cy="165.907" r="2.09302"></circle>
                    <circle id="Oval" transform="translate(165.350000, 165.907000) rotate(-90.000000) translate(-165.350000, -165.907000) " cx="165.35" cy="165.907" r="2.09302"></circle>
                    <circle id="Oval" transform="translate(183.490000, 165.907000) rotate(-90.000000) translate(-183.490000, -165.907000) " cx="183.49" cy="165.907" r="2.09302"></circle>
                    <circle id="Oval" transform="translate(201.630000, 165.907000) rotate(-90.000000) translate(-201.630000, -165.907000) " cx="201.63" cy="165.907" r="2.09302"></circle>
                    <circle id="Oval" transform="translate(219.770000, 165.907000) rotate(-90.000000) translate(-219.770000, -165.907000) " cx="219.77" cy="165.907" r="2.09302"></circle>
                    <circle id="Oval" transform="translate(237.910000, 165.907000) rotate(-90.000000) translate(-237.910000, -165.907000) " cx="237.91" cy="165.907" r="2.09302"></circle>
                    <circle id="Oval" transform="translate(2.090000, 147.767000) rotate(-90.000000) translate(-2.090000, -147.767000) " cx="2.09" cy="147.767" r="2.09302"></circle>
                    <circle id="Oval" transform="translate(20.230000, 147.767000) rotate(-90.000000) translate(-20.230000, -147.767000) " cx="20.23" cy="147.767" r="2.09302"></circle>
                    <circle id="Oval" transform="translate(38.370000, 147.767000) rotate(-90.000000) translate(-38.370000, -147.767000) " cx="38.37" cy="147.767" r="2.09302"></circle>
                    <circle id="Oval" transform="translate(56.510000, 147.767000) rotate(-90.000000) translate(-56.510000, -147.767000) " cx="56.51" cy="147.767" r="2.09302"></circle>
                    <circle id="Oval" transform="translate(74.650000, 147.767000) rotate(-90.000000) translate(-74.650000, -147.767000) " cx="74.65" cy="147.767" r="2.09302"></circle>
                    <circle id="Oval" transform="translate(92.790000, 147.767000) rotate(-90.000000) translate(-92.790000, -147.767000) " cx="92.79" cy="147.767" r="2.09302"></circle>
                    <circle id="Oval" transform="translate(110.930000, 147.767000) rotate(-90.000000) translate(-110.930000, -147.767000) " cx="110.93" cy="147.767" r="2.09302"></circle>
                    <circle id="Oval" transform="translate(129.070000, 147.767000) rotate(-90.000000) translate(-129.070000, -147.767000) " cx="129.07" cy="147.767" r="2.09302"></circle>
                    <circle id="Oval" transform="translate(147.210000, 147.767000) rotate(-90.000000) translate(-147.210000, -147.767000) " cx="147.21" cy="147.767" r="2.09302"></circle>
                    <circle id="Oval" transform="translate(165.350000, 147.767000) rotate(-90.000000) translate(-165.350000, -147.767000) " cx="165.35" cy="147.767" r="2.09302"></circle>
                    <circle id="Oval" transform="translate(183.490000, 147.767000) rotate(-90.000000) translate(-183.490000, -147.767000) " cx="183.49" cy="147.767" r="2.09302"></circle>
                    <circle id="Oval" transform="translate(201.630000, 147.767000) rotate(-90.000000) translate(-201.630000, -147.767000) " cx="201.63" cy="147.767" r="2.09302"></circle>
                    <circle id="Oval" transform="translate(219.770000, 147.767000) rotate(-90.000000) translate(-219.770000, -147.767000) " cx="219.77" cy="147.767" r="2.09302"></circle>
                    <circle id="Oval" transform="translate(237.910000, 147.767000) rotate(-90.000000) translate(-237.910000, -147.767000) " cx="237.91" cy="147.767" r="2.09302"></circle>
                    <circle id="Oval" transform="translate(2.090000, 129.628000) rotate(-90.000000) translate(-2.090000, -129.628000) " cx="2.09" cy="129.628" r="2.09302"></circle>
                    <circle id="Oval" transform="translate(20.230000, 129.628000) rotate(-90.000000) translate(-20.230000, -129.628000) " cx="20.23" cy="129.628" r="2.09302"></circle>
                    <circle id="Oval" transform="translate(38.370000, 129.628000) rotate(-90.000000) translate(-38.370000, -129.628000) " cx="38.37" cy="129.628" r="2.09302"></circle>
                    <circle id="Oval" transform="translate(56.510000, 129.628000) rotate(-90.000000) translate(-56.510000, -129.628000) " cx="56.51" cy="129.628" r="2.09302"></circle>
                    <circle id="Oval" transform="translate(74.650000, 129.628000) rotate(-90.000000) translate(-74.650000, -129.628000) " cx="74.65" cy="129.628" r="2.09302"></circle>
                    <circle id="Oval" transform="translate(92.790000, 129.628000) rotate(-90.000000) translate(-92.790000, -129.628000) " cx="92.79" cy="129.628" r="2.09302"></circle>
                    <circle id="Oval" transform="translate(110.930000, 129.628000) rotate(-90.000000) translate(-110.930000, -129.628000) " cx="110.93" cy="129.628" r="2.09302"></circle>
                    <circle id="Oval" transform="translate(129.070000, 129.628000) rotate(-90.000000) translate(-129.070000, -129.628000) " cx="129.07" cy="129.628" r="2.09302"></circle>
                    <circle id="Oval" transform="translate(147.210000, 129.628000) rotate(-90.000000) translate(-147.210000, -129.628000) " cx="147.21" cy="129.628" r="2.09302"></circle>
                    <circle id="Oval" transform="translate(165.350000, 129.628000) rotate(-90.000000) translate(-165.350000, -129.628000) " cx="165.35" cy="129.628" r="2.09302"></circle>
                    <circle id="Oval" transform="translate(183.490000, 129.628000) rotate(-90.000000) translate(-183.490000, -129.628000) " cx="183.49" cy="129.628" r="2.09302"></circle>
                    <circle id="Oval" transform="translate(201.630000, 129.628000) rotate(-90.000000) translate(-201.630000, -129.628000) " cx="201.63" cy="129.628" r="2.09302"></circle>
                    <circle id="Oval" transform="translate(219.770000, 129.628000) rotate(-90.000000) translate(-219.770000, -129.628000) " cx="219.77" cy="129.628" r="2.09302"></circle>
                    <circle id="Oval" transform="translate(237.910000, 129.628000) rotate(-90.000000) translate(-237.910000, -129.628000) " cx="237.91" cy="129.628" r="2.09302"></circle>
                    <circle id="Oval" transform="translate(2.090000, 111.488000) rotate(-90.000000) translate(-2.090000, -111.488000) " cx="2.09" cy="111.488" r="2.09302"></circle>
                    <circle id="Oval" transform="translate(20.230000, 111.488000) rotate(-90.000000) translate(-20.230000, -111.488000) " cx="20.23" cy="111.488" r="2.09302"></circle>
                    <circle id="Oval" transform="translate(38.370000, 111.488000) rotate(-90.000000) translate(-38.370000, -111.488000) " cx="38.37" cy="111.488" r="2.09302"></circle>
                    <circle id="Oval" transform="translate(56.510000, 111.488000) rotate(-90.000000) translate(-56.510000, -111.488000) " cx="56.51" cy="111.488" r="2.09302"></circle>
                    <circle id="Oval" transform="translate(74.650000, 111.488000) rotate(-90.000000) translate(-74.650000, -111.488000) " cx="74.65" cy="111.488" r="2.09302"></circle>
                    <circle id="Oval" transform="translate(92.790000, 111.488000) rotate(-90.000000) translate(-92.790000, -111.488000) " cx="92.79" cy="111.488" r="2.09302"></circle>
                    <circle id="Oval" transform="translate(110.930000, 111.488000) rotate(-90.000000) translate(-110.930000, -111.488000) " cx="110.93" cy="111.488" r="2.09302"></circle>
                    <circle id="Oval" transform="translate(129.070000, 111.488000) rotate(-90.000000) translate(-129.070000, -111.488000) " cx="129.07" cy="111.488" r="2.09302"></circle>
                    <circle id="Oval" transform="translate(147.210000, 111.488000) rotate(-90.000000) translate(-147.210000, -111.488000) " cx="147.21" cy="111.488" r="2.09302"></circle>
                    <circle id="Oval" transform="translate(165.350000, 111.488000) rotate(-90.000000) translate(-165.350000, -111.488000) " cx="165.35" cy="111.488" r="2.09302"></circle>
                    <circle id="Oval" transform="translate(183.490000, 111.488000) rotate(-90.000000) translate(-183.490000, -111.488000) " cx="183.49" cy="111.488" r="2.09302"></circle>
                    <circle id="Oval" transform="translate(201.630000, 111.488000) rotate(-90.000000) translate(-201.630000, -111.488000) " cx="201.63" cy="111.488" r="2.09302"></circle>
                    <circle id="Oval" transform="translate(219.770000, 111.488000) rotate(-90.000000) translate(-219.770000, -111.488000) " cx="219.77" cy="111.488" r="2.09302"></circle>
                    <circle id="Oval" transform="translate(237.910000, 111.488000) rotate(-90.000000) translate(-237.910000, -111.488000) " cx="237.91" cy="111.488" r="2.09302"></circle>
                    <circle id="Oval" transform="translate(2.090000, 93.349000) rotate(-90.000000) translate(-2.090000, -93.349000) " cx="2.09" cy="93.349" r="2.09302"></circle>
                    <circle id="Oval" transform="translate(20.230000, 93.349000) rotate(-90.000000) translate(-20.230000, -93.349000) " cx="20.23" cy="93.349" r="2.09302"></circle>
                    <circle id="Oval" transform="translate(38.370000, 93.349000) rotate(-90.000000) translate(-38.370000, -93.349000) " cx="38.37" cy="93.349" r="2.09302"></circle>
                    <circle id="Oval" transform="translate(56.510000, 93.349000) rotate(-90.000000) translate(-56.510000, -93.349000) " cx="56.51" cy="93.349" r="2.09302"></circle>
                    <circle id="Oval" transform="translate(74.650000, 93.349000) rotate(-90.000000) translate(-74.650000, -93.349000) " cx="74.65" cy="93.349" r="2.09302"></circle>
                    <circle id="Oval" transform="translate(92.790000, 93.349000) rotate(-90.000000) translate(-92.790000, -93.349000) " cx="92.79" cy="93.349" r="2.09302"></circle>
                    <circle id="Oval" transform="translate(110.930000, 93.349000) rotate(-90.000000) translate(-110.930000, -93.349000) " cx="110.93" cy="93.349" r="2.09302"></circle>
                    <circle id="Oval" transform="translate(129.070000, 93.349000) rotate(-90.000000) translate(-129.070000, -93.349000) " cx="129.07" cy="93.349" r="2.09302"></circle>
                    <circle id="Oval" transform="translate(147.210000, 93.349000) rotate(-90.000000) translate(-147.210000, -93.349000) " cx="147.21" cy="93.349" r="2.09302"></circle>
                    <circle id="Oval" transform="translate(165.350000, 93.349000) rotate(-90.000000) translate(-165.350000, -93.349000) " cx="165.35" cy="93.349" r="2.09302"></circle>
                    <circle id="Oval" transform="translate(183.490000, 93.349000) rotate(-90.000000) translate(-183.490000, -93.349000) " cx="183.49" cy="93.349" r="2.09302"></circle>
                    <circle id="Oval" transform="translate(201.630000, 93.349000) rotate(-90.000000) translate(-201.630000, -93.349000) " cx="201.63" cy="93.349" r="2.09302"></circle>
                    <circle id="Oval" transform="translate(219.770000, 93.349000) rotate(-90.000000) translate(-219.770000, -93.349000) " cx="219.77" cy="93.349" r="2.09302"></circle>
                    <circle id="Oval" transform="translate(237.910000, 93.349000) rotate(-90.000000) translate(-237.910000, -93.349000) " cx="237.91" cy="93.349" r="2.09302"></circle>
                    <circle id="Oval" transform="translate(2.090000, 75.209000) rotate(-90.000000) translate(-2.090000, -75.209000) " cx="2.09" cy="75.209" r="2.09302"></circle>
                    <circle id="Oval" transform="translate(20.230000, 75.209000) rotate(-90.000000) translate(-20.230000, -75.209000) " cx="20.23" cy="75.209" r="2.09302"></circle>
                    <circle id="Oval" transform="translate(38.370000, 75.209000) rotate(-90.000000) translate(-38.370000, -75.209000) " cx="38.37" cy="75.209" r="2.09302"></circle>
                    <circle id="Oval" transform="translate(56.510000, 75.209000) rotate(-90.000000) translate(-56.510000, -75.209000) " cx="56.51" cy="75.209" r="2.09302"></circle>
                    <circle id="Oval" transform="translate(74.650000, 75.209000) rotate(-90.000000) translate(-74.650000, -75.209000) " cx="74.65" cy="75.209" r="2.09302"></circle>
                    <circle id="Oval" transform="translate(92.790000, 75.209000) rotate(-90.000000) translate(-92.790000, -75.209000) " cx="92.79" cy="75.209" r="2.09302"></circle>
                    <circle id="Oval" transform="translate(110.930000, 75.209000) rotate(-90.000000) translate(-110.930000, -75.209000) " cx="110.93" cy="75.209" r="2.09302"></circle>
                    <circle id="Oval" transform="translate(129.070000, 75.209000) rotate(-90.000000) translate(-129.070000, -75.209000) " cx="129.07" cy="75.209" r="2.09302"></circle>
                    <circle id="Oval" transform="translate(147.210000, 75.209000) rotate(-90.000000) translate(-147.210000, -75.209000) " cx="147.21" cy="75.209" r="2.09302"></circle>
                    <circle id="Oval" transform="translate(165.350000, 75.209000) rotate(-90.000000) translate(-165.350000, -75.209000) " cx="165.35" cy="75.209" r="2.09302"></circle>
                    <circle id="Oval" transform="translate(183.490000, 75.209000) rotate(-90.000000) translate(-183.490000, -75.209000) " cx="183.49" cy="75.209" r="2.09302"></circle>
                    <circle id="Oval" transform="translate(201.630000, 75.209000) rotate(-90.000000) translate(-201.630000, -75.209000) " cx="201.63" cy="75.209" r="2.09302"></circle>
                    <circle id="Oval" transform="translate(219.770000, 75.209000) rotate(-90.000000) translate(-219.770000, -75.209000) " cx="219.77" cy="75.209" r="2.09302"></circle>
                    <circle id="Oval" transform="translate(237.910000, 75.209000) rotate(-90.000000) translate(-237.910000, -75.209000) " cx="237.91" cy="75.209" r="2.09302"></circle>
                    <circle id="Oval" transform="translate(2.090000, 57.070000) rotate(-90.000000) translate(-2.090000, -57.070000) " cx="2.09" cy="57.07" r="2.09302"></circle>
                    <circle id="Oval" transform="translate(20.230000, 57.070000) rotate(-90.000000) translate(-20.230000, -57.070000) " cx="20.23" cy="57.07" r="2.09302"></circle>
                    <circle id="Oval" transform="translate(38.370000, 57.070000) rotate(-90.000000) translate(-38.370000, -57.070000) " cx="38.37" cy="57.07" r="2.09302"></circle>
                    <circle id="Oval" transform="translate(56.510000, 57.070000) rotate(-90.000000) translate(-56.510000, -57.070000) " cx="56.51" cy="57.07" r="2.09302"></circle>
                    <circle id="Oval" transform="translate(74.650000, 57.070000) rotate(-90.000000) translate(-74.650000, -57.070000) " cx="74.65" cy="57.07" r="2.09302"></circle>
                    <circle id="Oval" transform="translate(92.790000, 57.070000) rotate(-90.000000) translate(-92.790000, -57.070000) " cx="92.79" cy="57.07" r="2.09302"></circle>
                    <circle id="Oval" transform="translate(110.930000, 57.070000) rotate(-90.000000) translate(-110.930000, -57.070000) " cx="110.93" cy="57.07" r="2.09302"></circle>
                    <circle id="Oval" transform="translate(129.070000, 57.070000) rotate(-90.000000) translate(-129.070000, -57.070000) " cx="129.07" cy="57.07" r="2.09302"></circle>
                    <circle id="Oval" transform="translate(147.210000, 57.070000) rotate(-90.000000) translate(-147.210000, -57.070000) " cx="147.21" cy="57.07" r="2.09302"></circle>
                    <circle id="Oval" transform="translate(165.350000, 57.070000) rotate(-90.000000) translate(-165.350000, -57.070000) " cx="165.35" cy="57.07" r="2.09302"></circle>
                    <circle id="Oval" transform="translate(183.490000, 57.070000) rotate(-90.000000) translate(-183.490000, -57.070000) " cx="183.49" cy="57.07" r="2.09302"></circle>
                    <circle id="Oval" transform="translate(201.630000, 57.070000) rotate(-90.000000) translate(-201.630000, -57.070000) " cx="201.63" cy="57.07" r="2.09302"></circle>
                    <circle id="Oval" transform="translate(219.770000, 57.070000) rotate(-90.000000) translate(-219.770000, -57.070000) " cx="219.77" cy="57.07" r="2.09302"></circle>
                    <circle id="Oval" transform="translate(237.910000, 57.070000) rotate(-90.000000) translate(-237.910000, -57.070000) " cx="237.91" cy="57.07" r="2.09302"></circle>
                    <circle id="Oval" transform="translate(2.090000, 38.930000) rotate(-90.000000) translate(-2.090000, -38.930000) " cx="2.09" cy="38.93" r="2.09302"></circle>
                    <circle id="Oval" transform="translate(20.230000, 38.930000) rotate(-90.000000) translate(-20.230000, -38.930000) " cx="20.23" cy="38.93" r="2.09302"></circle>
                    <circle id="Oval" transform="translate(38.370000, 38.930000) rotate(-90.000000) translate(-38.370000, -38.930000) " cx="38.37" cy="38.93" r="2.09302"></circle>
                    <circle id="Oval" transform="translate(56.510000, 38.930000) rotate(-90.000000) translate(-56.510000, -38.930000) " cx="56.51" cy="38.93" r="2.09302"></circle>
                    <circle id="Oval" transform="translate(74.650000, 38.930000) rotate(-90.000000) translate(-74.650000, -38.930000) " cx="74.65" cy="38.93" r="2.09302"></circle>
                    <circle id="Oval" transform="translate(92.790000, 38.930000) rotate(-90.000000) translate(-92.790000, -38.930000) " cx="92.79" cy="38.93" r="2.09302"></circle>
                    <circle id="Oval" transform="translate(110.930000, 38.930000) rotate(-90.000000) translate(-110.930000, -38.930000) " cx="110.93" cy="38.93" r="2.09302"></circle>
                    <circle id="Oval" transform="translate(129.070000, 38.930000) rotate(-90.000000) translate(-129.070000, -38.930000) " cx="129.07" cy="38.93" r="2.09302"></circle>
                    <circle id="Oval" transform="translate(147.210000, 38.930000) rotate(-90.000000) translate(-147.210000, -38.930000) " cx="147.21" cy="38.93" r="2.09302"></circle>
                    <circle id="Oval" transform="translate(165.350000, 38.930000) rotate(-90.000000) translate(-165.350000, -38.930000) " cx="165.35" cy="38.93" r="2.09302"></circle>
                    <circle id="Oval" transform="translate(183.490000, 38.930000) rotate(-90.000000) translate(-183.490000, -38.930000) " cx="183.49" cy="38.93" r="2.09302"></circle>
                    <circle id="Oval" transform="translate(201.630000, 38.930000) rotate(-90.000000) translate(-201.630000, -38.930000) " cx="201.63" cy="38.93" r="2.09302"></circle>
                    <circle id="Oval" transform="translate(219.770000, 38.930000) rotate(-90.000000) translate(-219.770000, -38.930000) " cx="219.77" cy="38.93" r="2.09302"></circle>
                    <circle id="Oval" transform="translate(237.910000, 38.930000) rotate(-90.000000) translate(-237.910000, -38.930000) " cx="237.91" cy="38.93" r="2.09302"></circle>
                    <circle id="Oval" transform="translate(2.090000, 20.790000) rotate(-90.000000) translate(-2.090000, -20.790000) " cx="2.09" cy="20.79" r="2.09302"></circle>
                    <circle id="Oval" transform="translate(20.230000, 20.790000) rotate(-90.000000) translate(-20.230000, -20.790000) " cx="20.23" cy="20.79" r="2.09302"></circle>
                    <circle id="Oval" transform="translate(38.370000, 20.790000) rotate(-90.000000) translate(-38.370000, -20.790000) " cx="38.37" cy="20.79" r="2.09302"></circle>
                    <circle id="Oval" transform="translate(56.510000, 20.790000) rotate(-90.000000) translate(-56.510000, -20.790000) " cx="56.51" cy="20.79" r="2.09302"></circle>
                    <circle id="Oval" transform="translate(74.650000, 20.790000) rotate(-90.000000) translate(-74.650000, -20.790000) " cx="74.65" cy="20.79" r="2.09302"></circle>
                    <circle id="Oval" transform="translate(92.790000, 20.790000) rotate(-90.000000) translate(-92.790000, -20.790000) " cx="92.79" cy="20.79" r="2.09302"></circle>
                    <circle id="Oval" transform="translate(110.930000, 20.790000) rotate(-90.000000) translate(-110.930000, -20.790000) " cx="110.93" cy="20.79" r="2.09302"></circle>
                    <circle id="Oval" transform="translate(129.070000, 20.790000) rotate(-90.000000) translate(-129.070000, -20.790000) " cx="129.07" cy="20.79" r="2.09302"></circle>
                    <circle id="Oval" transform="translate(147.210000, 20.790000) rotate(-90.000000) translate(-147.210000, -20.790000) " cx="147.21" cy="20.79" r="2.09302"></circle>
                    <circle id="Oval" transform="translate(165.350000, 20.790000) rotate(-90.000000) translate(-165.350000, -20.790000) " cx="165.35" cy="20.79" r="2.09302"></circle>
                    <circle id="Oval" transform="translate(183.490000, 20.790000) rotate(-90.000000) translate(-183.490000, -20.790000) " cx="183.49" cy="20.79" r="2.09302"></circle>
                    <circle id="Oval" transform="translate(201.630000, 20.790000) rotate(-90.000000) translate(-201.630000, -20.790000) " cx="201.63" cy="20.79" r="2.09302"></circle>
                    <circle id="Oval" transform="translate(219.770000, 20.790000) rotate(-90.000000) translate(-219.770000, -20.790000) " cx="219.77" cy="20.79" r="2.09302"></circle>
                    <circle id="Oval" transform="translate(237.910000, 20.790000) rotate(-90.000000) translate(-237.910000, -20.790000) " cx="237.91" cy="20.79" r="2.09302"></circle>
                    <circle id="Oval" transform="translate(2.090000, 2.651000) rotate(-90.000000) translate(-2.090000, -2.651000) " cx="2.09" cy="2.651" r="2.09302"></circle>
                    <circle id="Oval" transform="translate(20.230000, 2.651000) rotate(-90.000000) translate(-20.230000, -2.651000) " cx="20.23" cy="2.651" r="2.09302"></circle>
                    <circle id="Oval" transform="translate(38.370000, 2.651000) rotate(-90.000000) translate(-38.370000, -2.651000) " cx="38.37" cy="2.651" r="2.09302"></circle>
                    <circle id="Oval" transform="translate(56.510000, 2.651000) rotate(-90.000000) translate(-56.510000, -2.651000) " cx="56.51" cy="2.651" r="2.09302"></circle>
                    <circle id="Oval" transform="translate(74.650000, 2.651000) rotate(-90.000000) translate(-74.650000, -2.651000) " cx="74.65" cy="2.651" r="2.09302"></circle>
                    <circle id="Oval" transform="translate(92.790000, 2.651000) rotate(-90.000000) translate(-92.790000, -2.651000) " cx="92.79" cy="2.651" r="2.09302"></circle>
                    <circle id="Oval" transform="translate(110.930000, 2.651000) rotate(-90.000000) translate(-110.930000, -2.651000) " cx="110.93" cy="2.651" r="2.09302"></circle>
                    <circle id="Oval" transform="translate(129.070000, 2.651000) rotate(-90.000000) translate(-129.070000, -2.651000) " cx="129.07" cy="2.651" r="2.09302"></circle>
                    <circle id="Oval" transform="translate(147.210000, 2.651000) rotate(-90.000000) translate(-147.210000, -2.651000) " cx="147.21" cy="2.651" r="2.09302"></circle>
                    <circle id="Oval" transform="translate(165.350000, 2.651000) rotate(-90.000000) translate(-165.350000, -2.651000) " cx="165.35" cy="2.651" r="2.09302"></circle>
                    <circle id="Oval" transform="translate(183.490000, 2.651000) rotate(-90.000000) translate(-183.490000, -2.651000) " cx="183.49" cy="2.651" r="2.09302"></circle>
                    <circle id="Oval" transform="translate(201.630000, 2.651000) rotate(-90.000000) translate(-201.630000, -2.651000) " cx="201.63" cy="2.651" r="2.09302"></circle>
                    <circle id="Oval" transform="translate(219.770000, 2.651000) rotate(-90.000000) translate(-219.770000, -2.651000) " cx="219.77" cy="2.651" r="2.09302"></circle>
                    <circle id="Oval" transform="translate(237.910000, 2.651000) rotate(-90.000000) translate(-237.910000, -2.651000) " cx="237.91" cy="2.651" r="2.09302"></circle>
                </g>
            </g>
        </g>
    </g>
</svg>