<?xml version="1.0" encoding="UTF-8"?>
<svg width="83px" height="82px" viewBox="0 0 83 82" version="1.1" xmlns="http://www.w3.org/2000/svg" xmlns:xlink="http://www.w3.org/1999/xlink">
    <title>996328F9-BBBA-4EEA-8EC4-9323F7FF9D1D</title>
    <defs>
        <filter x="-15.0%" y="-56.2%" width="130.0%" height="212.5%" filterUnits="objectBoundingBox" id="filter-1">
            <feOffset dx="4" dy="4" in="SourceAlpha" result="shadowOffsetOuter1"></feOffset>
            <feGaussianBlur stdDeviation="12" in="shadowOffsetOuter1" result="shadowBlurOuter1"></feGaussianBlur>
            <feColorMatrix values="0 0 0 0 0   0 0 0 0 0   0 0 0 0 0  0 0 0 0.08 0" type="matrix" in="shadowBlurOuter1" result="shadowMatrixOuter1"></feColorMatrix>
            <feMerge>
                <feMergeNode in="shadowMatrixOuter1"></feMergeNode>
                <feMergeNode in="SourceGraphic"></feMergeNode>
            </feMerge>
        </filter>
        <path d="M13.444878,-3.55271368e-15 C15.1258537,-3.55271368e-15 16.6214634,0.829268293 17.5609756,2.11707317 C18.5004878,0.829268293 19.9960976,-3.55271368e-15 21.6770732,-3.55271368e-15 L21.6770732,-3.55271368e-15 L34.0926829,-3.55271368e-15 C34.6614634,-3.55271368e-15 35.1219512,0.47804878 35.1219512,1.05365854 L35.1219512,1.05365854 L35.1219512,28.6146341 C35.1219512,29.2 34.6614634,29.6682927 34.0926829,29.6682927 L34.0926829,29.6682927 L26.4721951,29.6682927 L24.5521951,33.0829268 C24.2673171,33.5804878 23.6380488,33.7560976 23.1463415,33.4634146 L23.1463415,33.4634146 L22.1658537,32.8878049 C21.5092683,32.497561 20.6478049,32.9560976 20.6478049,33.7170732 L20.6478049,33.7170732 L20.6478049,34.9463415 C20.6478049,35.5219512 20.1873171,36 19.6185366,36 L19.6185366,36 L15.5034146,36 C14.9346341,36 14.4741463,35.5219512 14.4741463,34.9463415 L14.4741463,34.9463415 L14.4741463,33.6780488 C14.4741463,32.9463415 13.5941463,32.5073171 13.0156098,32.8487805 L13.0156098,32.8487805 L11.9756098,33.4634146 C11.7395122,33.6 11.4585366,33.6390244 11.195122,33.5707317 C10.9307317,33.4926829 10.7063415,33.3170732 10.5697561,33.0829268 L10.5697561,33.0829268 L8.6497561,29.6682927 L1.02926829,29.6682927 C0.460487805,29.6682927 0,29.2 0,28.6146341 L0,28.6146341 L0,1.05365854 C0,0.47804878 0.460487805,-3.55271368e-15 1.02926829,-3.55271368e-15 L1.02926829,-3.55271368e-15 Z M18.5902439,19.1219512 L16.5317073,19.1219512 L16.5317073,19.3073171 C16.5317073,21.6585366 13.9629268,23.1609756 11.9609756,21.9707317 L11.9609756,21.9707317 L11.8380488,21.902439 L10.8087805,23.7268293 L10.9073171,23.7853659 C12.8858537,24.9560976 13.0643902,27.9512195 11.0536585,29.1414634 L11.0536585,29.1414634 L10.8087805,29.2878049 L11.8380488,31.1121951 L11.9863415,31.0243902 C13.96,29.8536585 16.5317073,31.3463415 16.5317073,33.6780488 L16.5317073,33.6780488 L16.5317073,33.8926829 L18.5902439,33.8926829 L18.5902439,33.7170732 C18.5902439,31.3073171 21.1863415,29.8731707 23.195122,31.0536585 L23.195122,31.0536585 L23.2839024,31.1121951 L24.3131707,29.2878049 L24.1258537,29.1707317 C22.1209756,27.9902439 22.1668293,24.995122 24.1560976,23.8243902 L24.1560976,23.8243902 L24.3131707,23.7268293 L23.2839024,21.902439 L23.2009756,21.9512195 C21.1843902,23.1414634 18.5902439,21.697561 18.5902439,19.3073171 L18.5902439,19.3073171 L18.5902439,19.1219512 Z M17.5609756,23.3463415 C19.2634146,23.3463415 20.6478049,24.7609756 20.6478049,26.5073171 C20.6478049,28.2536585 19.2634146,29.6682927 17.5609756,29.6682927 C15.8585366,29.6682927 14.4741463,28.2536585 14.4741463,26.5073171 C14.4741463,24.7609756 15.8585366,23.3463415 17.5609756,23.3463415 Z M33.0643902,2.10731707 L21.6770732,2.10731707 C19.9746341,2.10731707 18.5902439,3.53170732 18.5902439,5.27804878 L18.5902439,5.27804878 L18.5902439,17.0146341 L19.6185366,17.0146341 C20.1873171,17.0146341 20.6478049,17.4926829 20.6478049,18.0682927 L20.6478049,18.0682927 L20.6478049,19.3073171 C20.6478049,20.0682927 21.515122,20.5170732 22.1717073,20.1268293 L22.1717073,20.1268293 L23.1463415,19.5512195 C23.6390244,19.2585366 24.2682927,19.4341463 24.5521951,19.9317073 L24.5521951,19.9317073 L26.6097561,23.5902439 C26.8946341,24.0878049 26.724878,24.7414634 26.2331707,25.0243902 L26.2331707,25.0243902 L25.1843902,25.6487805 C24.5560976,26.0195122 24.5326829,26.9756098 25.155122,27.3463415 L25.155122,27.3463415 L25.5629268,27.5902439 C25.6370732,27.5707317 25.7141463,27.5609756 25.7931707,27.5609756 L25.7931707,27.5609756 L33.0643902,27.5609756 L33.0643902,2.10731707 Z M13.444878,2.10731707 L2.05756098,2.10731707 L2.05756098,27.5609756 L9.32878049,27.5609756 C9.40878049,27.5609756 9.48487805,27.5707317 9.55902439,27.5902439 L9.55902439,27.5902439 L10.0243902,27.3170732 C10.6321951,26.9560976 10.5102439,25.9902439 9.87902439,25.6097561 L9.87902439,25.6097561 L8.88878049,25.0243902 C8.39609756,24.7414634 8.22829268,24.0878049 8.51219512,23.5902439 L8.51219512,23.5902439 L10.5697561,19.9317073 C10.8536585,19.4341463 11.4839024,19.2585366 11.9756098,19.5512195 L11.9756098,19.5512195 L12.9902439,20.1463415 C13.6282927,20.5268293 14.4741463,20.0390244 14.4741463,19.3073171 L14.4741463,19.3073171 L14.4741463,18.0682927 C14.4741463,17.4926829 14.9346341,17.0146341 15.5034146,17.0146341 L15.5034146,17.0146341 L16.5317073,17.0146341 L16.5317073,5.27804878 C16.5317073,3.53170732 15.1473171,2.10731707 13.444878,2.10731707 L13.444878,2.10731707 Z M17.5609756,25.4536585 C16.9931707,25.4536585 16.5317073,25.9219512 16.5317073,26.5073171 C16.5317073,27.0829268 16.9931707,27.5609756 17.5609756,27.5609756 C18.1287805,27.5609756 18.5902439,27.0829268 18.5902439,26.5073171 C18.5902439,25.9219512 18.1287805,25.4536585 17.5609756,25.4536585 Z M13.444878,10.6146341 C14.0136585,10.6146341 14.4741463,11.0926829 14.4741463,11.6682927 C14.4741463,12.2536585 14.0136585,12.7317073 13.444878,12.7317073 L13.444878,12.7317073 L5.14439024,12.7317073 C4.57658537,12.7317073 4.11609756,12.2536585 4.11609756,11.6682927 C4.11609756,11.0926829 4.57658537,10.6146341 5.14439024,10.6146341 L5.14439024,10.6146341 Z M29.977561,10.6146341 C30.5453659,10.6146341 31.0058537,11.0926829 31.0058537,11.6682927 C31.0058537,12.2536585 30.5453659,12.7317073 29.977561,12.7317073 L29.977561,12.7317073 L21.6770732,12.7317073 C21.1082927,12.7317073 20.6478049,12.2536585 20.6478049,11.6682927 C20.6478049,11.0926829 21.1082927,10.6146341 21.6770732,10.6146341 L21.6770732,10.6146341 Z M13.444878,6.4 C14.0136585,6.4 14.4741463,6.86829268 14.4741463,7.45365854 C14.4741463,8.03902439 14.0136585,8.50731707 13.444878,8.50731707 L13.444878,8.50731707 L5.14439024,8.50731707 C4.57658537,8.50731707 4.11609756,8.03902439 4.11609756,7.45365854 C4.11609756,6.86829268 4.57658537,6.4 5.14439024,6.4 L5.14439024,6.4 Z M29.977561,6.4 C30.5453659,6.4 31.0058537,6.86829268 31.0058537,7.45365854 C31.0058537,8.03902439 30.5453659,8.50731707 29.977561,8.50731707 L29.977561,8.50731707 L21.6770732,8.50731707 C21.1082927,8.50731707 20.6478049,8.03902439 20.6478049,7.45365854 C20.6478049,6.86829268 21.1082927,6.4 21.6770732,6.4 L21.6770732,6.4 Z" id="path-2"></path>
    </defs>
    <g id="Page-1" stroke="none" stroke-width="1" fill="none" fill-rule="evenodd">
        <g id="Siphome---Dekstop-1440" transform="translate(-174.000000, -4617.000000)">
            <g id="services" transform="translate(160.000000, 3517.000000)">
                <g id="icon" transform="translate(0.000000, 974.000000)">
                    <g id="4" filter="url(#filter-1)" transform="translate(0.000000, 116.000000)">
                        <g id="icon" transform="translate(24.000000, 20.000000)">
                            <g id="Icon/Line/Book-Guide" transform="translate(9.500000, 9.500000)">
                                <mask id="mask-3" fill="white">
                                    <use xlink:href="#path-2"></use>
                                </mask>
                                <use id="Combined-Shape" fill="#D69026" fill-rule="nonzero" xlink:href="#path-2"></use>
                            </g>
                        </g>
                    </g>
                </g>
            </g>
        </g>
    </g>
</svg>