<?xml version="1.0" encoding="UTF-8"?>
<svg width="36px" height="36px" viewBox="0 0 36 36" version="1.1" xmlns="http://www.w3.org/2000/svg" xmlns:xlink="http://www.w3.org/1999/xlink">
    <title>6BBFE08C-C0A9-4563-991F-76CCC132ED6E</title>
    <defs>
        <path d="M22.86675,0.66 C22.59175,0.38 22.14675,0.38 21.87275,0.66 L20.87775,1.65 C20.60375,1.93 20.60375,2.37 20.87775,2.65 C21.01575,2.78 21.19575,2.85 21.37475,2.85 C21.55475,2.85 21.73475,2.78 21.87275,2.65 L22.86675,1.65 C23.14075,1.38 23.14175,0.93 22.86675,0.66 Z M27.83775,0.66 C28.11275,0.38 28.55775,0.38 28.83275,0.66 C29.10775,0.93 29.10775,1.38 28.83275,1.65 C28.55775,1.93 28.11275,1.93 27.83775,1.65 C27.56375,1.38 27.56375,0.93 27.83775,0.66 Z M33.80475,1.65 C33.52975,1.38 33.08475,1.38 32.80975,1.65 C32.53575,1.93 32.53575,2.37 32.80975,2.65 C33.08475,2.92 33.52975,2.92 33.80475,2.65 C34.07875,2.37 34.07875,1.93 33.80475,1.65 Z M35.79375,5.63 C35.51875,5.35 35.07375,5.35 34.79875,5.63 C34.52475,5.9 34.52475,6.35 34.79875,6.62 C35.07375,6.9 35.51875,6.9 35.79375,6.62 C36.06875,6.35 36.06875,5.9 35.79375,5.63 Z M4.21675,31.33 C3.94175,31.06 3.49675,31.06 3.22175,31.33 C2.94775,31.61 2.94775,32.05 3.22175,32.33 C3.49675,32.6 3.94175,32.6 4.21675,32.33 C4.49075,32.05 4.49075,31.61 4.21675,31.33 Z M8.93975,25.52 C9.21075,25.24 9.65575,25.24 9.93375,25.51 C10.21175,25.78 10.21675,26.23 9.94575,26.5 L6.21175,30.33 C6.07375,30.47 5.89075,30.54 5.70775,30.54 C5.53075,30.54 5.35375,30.48 5.21675,30.34 C4.93975,30.07 4.93375,29.63 5.20475,29.35 L8.93975,25.52 Z M32.81075,16.57 L30.32975,14.09 L30.31875,14.08 L27.34675,11.1 L27.33575,11.09 L24.36375,8.12 L24.35375,8.11 L21.38075,5.14 L21.36975,5.13 L18.88875,2.65 C18.75775,2.51 18.57875,2.44 18.39175,2.44 C18.20575,2.44 18.02675,2.51 17.89475,2.65 L9.94075,10.6 L8.94475,11.6 C7.57475,12.97 7.57475,15.2 8.94575,16.57 L10.93475,18.56 C11.06775,18.69 11.14075,18.87 11.14075,19.05 C11.14075,19.24 11.06775,19.42 10.93475,19.55 L9.95375,20.53 L1.43575,28.16 L1.43475,28.16 C1.36275,28.22 1.29675,28.29 1.23375,28.35 C-0.41125,29.99 -0.41125,32.67 1.23375,34.32 C2.02875,35.11 3.08875,35.55 4.21675,35.55 C5.34475,35.55 6.40375,35.11 7.19975,34.32 C7.26375,34.25 7.32675,34.18 7.39275,34.11 L7.39375,34.11 L7.39475,34.11 L14.92875,25.5 L15.90675,24.52 C16.18075,24.25 16.62675,24.25 16.90075,24.52 L18.88975,26.51 C19.55375,27.17 20.43575,27.54 21.37475,27.54 C22.31375,27.54 23.19675,27.17 23.86075,26.51 L24.85575,25.52 L32.80975,17.56 C33.08475,17.29 33.08475,16.84 32.81075,16.57 Z M6.33675,33.18 C6.29075,33.23 6.24775,33.28 6.20575,33.32 C5.67575,33.85 4.96875,34.14 4.21675,34.14 C3.46375,34.14 2.75775,33.85 2.22775,33.32 C1.13175,32.22 1.13175,30.44 2.22775,29.34 C2.27175,29.3 2.31775,29.26 2.36975,29.21 L2.37175,29.21 L2.37375,29.21 L10.41075,22.01 L13.45275,25.05 L6.33675,33.18 Z M22.86675,25.52 C22.46775,25.91 21.93875,26.13 21.37575,26.13 C20.81175,26.13 20.28275,25.91 19.88375,25.52 L17.89475,23.53 C17.07275,22.71 15.73475,22.71 14.91175,23.53 L14.41475,24.02 L11.43175,21.04 L11.92875,20.54 C12.32775,20.15 12.54675,19.62 12.54675,19.05 C12.54675,18.49 12.32675,17.96 11.92875,17.56 L9.93975,15.57 C9.11775,14.75 9.11775,13.41 9.93975,12.59 L10.43775,12.09 L23.36375,25.02 L22.86675,25.52 Z M24.35875,24.02 L11.43175,11.1 L18.39175,4.14 L19.88375,5.63 L16.40375,9.11 C16.12875,9.38 16.12875,9.83 16.40375,10.1 C16.54075,10.24 16.72075,10.31 16.90075,10.31 C17.08075,10.31 17.26075,10.24 17.39775,10.1 L20.87775,6.62 L22.86675,8.61 L19.38675,12.09 C19.11175,12.37 19.11175,12.81 19.38675,13.09 C19.52375,13.22 19.70375,13.29 19.88375,13.29 C20.06375,13.29 20.24375,13.22 20.38075,13.09 L23.86175,9.61 L25.84975,11.6 L22.36975,15.08 C22.09475,15.35 22.09475,15.8 22.36975,16.07 C22.50675,16.21 22.68675,16.28 22.86675,16.28 C23.04675,16.28 23.22675,16.21 23.36375,16.07 L26.84375,12.59 L28.83275,14.58 L25.35275,18.06 C25.07775,18.33 25.07775,18.78 25.35275,19.05 C25.48975,19.19 25.66975,19.26 25.84975,19.26 C26.02975,19.26 26.20975,19.19 26.34675,19.05 L29.82775,15.57 L31.31875,17.06 L24.35875,24.02 Z M25.84975,2.65 C26.12475,2.37 26.56975,2.37 26.84475,2.65 C27.11875,2.92 27.11875,3.37 26.84475,3.64 L24.85575,5.63 C24.71875,5.77 24.53875,5.84 24.35875,5.84 C24.17875,5.84 23.99875,5.77 23.86175,5.63 C23.58675,5.35 23.58675,4.91 23.86175,4.63 L25.84975,2.65 Z M30.82175,3.64 C31.09575,3.37 31.54075,3.37 31.81575,3.64 C32.09075,3.92 32.09075,4.36 31.81575,4.63 L27.83775,8.61 C27.70075,8.75 27.52075,8.82 27.34075,8.82 C27.16075,8.82 26.98075,8.75 26.84375,8.61 C26.56975,8.34 26.56975,7.89 26.84375,7.62 L30.82175,3.64 Z M33.80475,7.62 C33.53075,7.34 33.08575,7.34 32.81075,7.62 L29.82775,10.6 C29.55275,10.88 29.55275,11.32 29.82775,11.6 C29.96475,11.73 30.14475,11.8 30.32475,11.8 C30.50475,11.8 30.68475,11.73 30.82175,11.6 L33.80475,8.61 C34.07975,8.34 34.07975,7.89 33.80475,7.62 Z M33.80475,12.59 C34.07975,12.32 34.52475,12.32 34.79875,12.59 C35.07375,12.86 35.07375,13.31 34.79875,13.58 L33.80475,14.58 C33.66775,14.72 33.48775,14.78 33.30775,14.78 C33.12775,14.78 32.94775,14.72 32.81075,14.58 C32.53575,14.3 32.53575,13.86 32.81075,13.58 L33.80475,12.59 Z" id="path-1"></path>
    </defs>
    <g id="Page-1" stroke="none" stroke-width="1" fill="none" fill-rule="evenodd">
        <g id="Siphome---Dekstop-1440" transform="translate(-861.000000, -2983.000000)">
            <g id="update" transform="translate(0.000000, 2183.000000)">
                <g id="icon" transform="translate(849.000000, 104.000000)">
                    <g id="Card/Icon/Align-Left" transform="translate(0.000000, 684.000000)">
                        <g id="Icon/Line/Paint" transform="translate(12.000000, 12.000000)">
                            <mask id="mask-2" fill="white">
                                <use xlink:href="#path-1"></use>
                            </mask>
                            <use id="Shape" fill="#1C57C9" xlink:href="#path-1"></use>
                            <rect id="change-color" fill="#2053D1" mask="url(#mask-2)" x="0" y="0" width="36" height="36"></rect>
                        </g>
                    </g>
                </g>
            </g>
        </g>
    </g>
</svg>