<?xml version="1.0" encoding="UTF-8"?>
<svg width="37px" height="33px" viewBox="0 0 37 33" version="1.1" xmlns="http://www.w3.org/2000/svg" xmlns:xlink="http://www.w3.org/1999/xlink">
    <title>398B9838-BFAD-4D26-A280-360F4E75BA11</title>
    <defs>
        <path d="M17.2969412,2.1909375 C17.2969412,1.809375 17.6114118,1.5 18,1.5 C18.3885882,1.5 18.7030588,1.809375 18.7030588,2.1909375 L18.7030588,7.6875 C18.7030588,8.0690625 18.3885882,8.3784375 18,8.3784375 C17.6114118,8.3784375 17.2969412,8.0690625 17.2969412,7.6875 L17.2969412,2.1909375 Z M10.5427059,10.4203125 L6.56470588,6.5325 C6.29047059,6.264375 5.84470588,6.264375 5.57047059,6.5325 C5.29623529,6.800625 5.29623529,7.23375 5.57047059,7.501875 L9.54741176,11.4 C9.82270588,11.668125 10.2674118,11.668125 10.5427059,11.4 C10.8169412,11.131875 10.8169412,10.6884375 10.5427059,10.4203125 Z M29.4352941,6.5325 C29.7105882,6.264375 30.1552941,6.264375 30.4295294,6.5325 C30.7048235,6.800625 30.7048235,7.23375 30.4295294,7.501875 L26.4525882,11.4 C26.1772941,11.668125 25.7325882,11.668125 25.4583529,11.4 C25.1830588,11.131875 25.1830588,10.6884375 25.4583529,10.4203125 L29.4352941,6.5325 Z M28.4103529,29.0034375 L29.25,29.0034375 C30.4125882,29.0034375 31.3591765,29.92125 31.3591765,31.0659375 L31.3591765,33.8090625 C31.3591765,34.190625 31.0447059,34.5 30.6561176,34.5 L5.34388235,34.5 C4.95529412,34.5 4.64082353,34.190625 4.64082353,33.8090625 L4.64082353,31.0659375 C4.64082353,29.92125 5.58741176,29.0034375 6.75,29.0034375 L7.58964706,29.0034375 L9.87882353,16.453125 C10.3044706,14.16375 12.3416471,12.5034375 14.7218824,12.5034375 L21.2781176,12.5034375 C23.6583529,12.5034375 25.6944706,14.16375 26.1211765,16.453125 L28.4103529,29.0034375 Z M14.7218824,13.875 C13.0214118,13.875 11.5665882,15.0609375 11.2637647,16.700625 L9.018,29.0034375 L26.982,29.0034375 L24.7372941,16.700625 C24.4334118,15.0609375 22.9785882,13.875 21.2781176,13.875 L14.7218824,13.875 Z M6.04694118,33.1284375 L29.9530588,33.1284375 L29.9530588,31.0659375 C29.9530588,30.684375 29.6375294,30.375 29.25,30.375 L6.75,30.375 C6.36247059,30.375 6.04694118,30.684375 6.04694118,31.0659375 L6.04694118,33.1284375 Z M22.2183529,18.6909375 C22.2183529,18.309375 22.5338824,18 22.9214118,18 C23.31,18 23.6244706,18.309375 23.6244706,18.6909375 C23.6244706,19.0621875 23.31,19.3715625 22.9214118,19.3715625 C22.5338824,19.3715625 22.2183529,19.0621875 22.2183529,18.6909375 Z M25.1883529,26.8171875 L24.1570588,21.25875 C24.0882353,20.8875 23.7208235,20.64 23.3396471,20.7121875 C22.9574118,20.7740625 22.7043529,21.135 22.7731765,21.50625 L23.8055294,27.0646875 C23.8754118,27.4359375 24.2438824,27.6834375 24.6229412,27.61125 C25.0041176,27.549375 25.2582353,27.1884375 25.1883529,26.8171875 Z M29.25,18 L35.2969412,18 C35.6855294,18 36,18.309375 36,18.6909375 C36,19.0621875 35.6855294,19.3715625 35.2969412,19.3715625 L29.25,19.3715625 C28.8614118,19.3715625 28.5469412,19.0621875 28.5469412,18.6909375 C28.5469412,18.309375 28.8614118,18 29.25,18 Z M6.75,18 L0.703058824,18 C0.314470588,18 0,18.309375 0,18.6909375 C0,19.0621875 0.314470588,19.3715625 0.703058824,19.3715625 L6.75,19.3715625 C7.13858824,19.3715625 7.45305882,19.0621875 7.45305882,18.6909375 C7.45305882,18.309375 7.13858824,18 6.75,18 Z" id="path-1"></path>
    </defs>
    <g id="Page-1" stroke="none" stroke-width="1" fill="none" fill-rule="evenodd">
        <g id="Siphome---Dekstop-1440" transform="translate(-656.000000, -1519.000000)">
            <g id="features" transform="translate(105.500000, 802.000000)">
                <g id="card" transform="translate(541.500000, 690.000000)">
                    <g id="ico-threat" transform="translate(0.000000, 16.000000)">
                        <g id="Icon/Line/Threat" transform="translate(9.500000, 9.500000)">
                            <mask id="mask-2" fill="white">
                                <use xlink:href="#path-1"></use>
                            </mask>
                            <use id="Shape" fill="#D62642" xlink:href="#path-1"></use>
                        </g>
                    </g>
                </g>
            </g>
        </g>
    </g>
</svg>