<?xml version="1.0" encoding="UTF-8"?>
<svg width="37px" height="35px" viewBox="0 0 37 35" version="1.1" xmlns="http://www.w3.org/2000/svg" xmlns:xlink="http://www.w3.org/1999/xlink">
    <title>8EF5BD73-F40C-4AE9-A5DE-9C3AA6E373B8</title>
    <defs>
        <path d="M32.3994597,16.5271005 C34.2417819,16.791802 35.692346,18.2211899 35.9570474,20.042336 C36.2852773,22.3081806 34.6970684,24.4152043 32.3994597,24.7434341 C30.101851,25.0716639 27.9736512,23.4940432 27.6454213,21.2281986 C27.3066035,18.962354 28.9054003,16.8553303 31.2030091,16.5271005 L31.2030091,15.4471185 C31.2030091,13.1283337 29.4453913,11.2436592 27.2960154,11.2436592 C25.2101678,11.2436592 23.4631381,13.0753934 23.3996098,15.3200618 L23.3996098,26.9775145 C23.3996098,31.3715589 20.0326071,34.9397346 15.9032642,34.9397346 C11.7633332,34.9397346 8.39633057,31.3715589 8.39633057,26.9775145 L8.39633057,25.9716489 C7.52810975,25.9716489 6.59636059,25.3469534 6.59636059,23.5999238 L6.59636059,22.1070075 C2.75289527,21.1329061 0,17.8611959 0,14.1553754 L0,12.9165725 L1.19645064,12.9165725 L1.19645064,5.20846575 C1.20703869,3.76848976 2.25525651,2.54027495 3.6952325,2.2967496 C3.86464143,1.78852278 4.24581155,1.37558849 4.75403837,1.18500343 C5.68578754,0.825009433 6.73400535,1.2697079 7.09399935,2.19086901 C7.4645814,3.11203012 7.00929488,4.14965987 6.07754571,4.50965387 C5.14579654,4.86964787 4.09757873,4.41436134 3.72699667,3.50378829 C2.94348033,3.70496141 2.40348933,4.40377328 2.40348933,5.20846575 L2.40348933,12.9165725 L4.20345931,12.9165725 L4.20345931,14.1765515 C4.24581155,16.2412229 5.6434353,18.0306049 7.6445784,18.60236 C8.72456039,18.9411779 9.86807073,18.9411779 10.9480527,18.60236 C12.9491958,18.0306049 14.3468196,16.2412229 14.3997599,14.1765515 L14.3997599,12.9165725 L15.5962105,12.9165725 L15.5750344,5.20846575 C15.5644463,4.41436134 15.0350434,3.72613752 14.2621151,3.50378829 C14.07153,3.99083899 13.6585958,4.37200911 13.160957,4.53082999 C12.2186198,4.83788369 11.2127542,4.32965687 10.9057005,3.3979077 C10.5986468,2.46615854 11.1068736,1.47088101 12.0492108,1.16382731 C12.9915481,0.856773609 13.9974136,1.36500043 14.3044673,2.2967496 C15.7232672,2.550863 16.760897,3.76848976 16.771485,5.19787769 L16.8032492,12.9165725 L17.9996998,12.9165725 L17.9996998,14.1553754 C17.9996998,17.8611959 15.2468046,21.1329061 11.4033392,22.1070075 L11.4033392,23.5999238 C11.4033392,25.3469534 10.4715901,25.9716489 9.60336926,25.9716489 L9.60336926,26.9775145 C9.60336926,30.7150992 12.4303809,33.7538721 15.9032642,33.7538721 C19.3761475,33.7538721 22.2031591,30.7150992 22.2031591,26.9775145 L22.2031591,15.2882977 L22.2349233,15.2882977 L22.2031591,15.2882977 C22.2772756,12.3977576 24.5642962,10.0472086 27.2960154,10.0472086 C30.112439,10.0472086 32.3994597,12.471874 32.3994597,15.4471185 L32.3994597,16.5271005 Z M11.9962705,2.83674059 C11.9962705,3.16497041 12.2715601,3.42967188 12.5997899,3.42967188 C12.9280197,3.42967188 13.2033092,3.16497041 13.2033092,2.83674059 C13.2033092,2.50851077 12.9280197,2.2438093 12.5997899,2.2438093 C12.2715601,2.2438093 11.9962705,2.50851077 11.9962705,2.83674059 Z M6.0034293,2.83674059 C6.0034293,2.50851077 5.72813977,2.2438093 5.39990995,2.2438093 C5.07168013,2.2438093 4.7963906,2.50851077 4.7963906,2.83674059 C4.7963906,3.16497041 5.07168013,3.42967188 5.39990995,3.42967188 C5.72813977,3.42967188 6.0034293,3.16497041 6.0034293,2.83674059 Z M1.19645064,14.1024351 L1.19645064,14.1553754 C1.19645064,17.4588497 3.76934891,20.3599778 7.31634858,21.0587897 C7.59163811,21.11173 7.86692763,21.1540822 8.15280522,21.1858464 C8.98926186,21.2705508 9.84689462,21.2281986 10.6833513,21.0587897 C14.2303509,20.3599778 16.8032492,17.4588497 16.8032492,14.1553754 L16.8032492,14.1024351 L15.5962105,14.1024351 L15.5962105,14.1765515 C15.5538583,16.7494498 13.8174166,19.0047063 11.3080467,19.7246943 C10.0057155,20.1376285 8.59750369,20.1376285 7.2845844,19.7246943 C4.77521449,19.0047063 3.04936091,16.7494498 2.99642062,14.1765515 L2.99642062,14.1024351 L1.19645064,14.1024351 Z M7.80339928,23.5999238 C7.80339928,23.9493297 7.85633957,24.7857863 8.39633057,24.7857863 L9.60336926,24.7857863 C10.1433603,24.7857863 10.1963006,23.9493297 10.1963006,23.5999238 L10.1963006,22.3399448 C10.1751244,22.3399448 10.1433603,22.3399448 10.1221841,22.3505328 C10.101008,22.3505328 10.0798319,22.3505328 10.0586558,22.3505328 C10.0163036,22.3611209 9.97395132,22.3611209 9.93159908,22.3611209 C9.91042297,22.3611209 9.88924685,22.3717089 9.86807073,22.3717089 C9.59278121,22.3928851 9.30690362,22.4140612 9.01043798,22.4140612 L8.98926186,22.4140612 C8.69279621,22.4140612 8.40691863,22.3928851 8.12104104,22.3717089 C8.11045298,22.3717089 8.09986493,22.3611209 8.07868881,22.3611209 C8.03633657,22.3611209 7.99398434,22.3611209 7.94104404,22.3505328 C7.93045599,22.3505328 7.90927987,22.3505328 7.88810375,22.3505328 C7.85633957,22.3399448 7.8245754,22.3399448 7.80339928,22.3399448 L7.80339928,23.5999238 Z M28.7995197,20.6352673 C28.7995197,22.2658284 30.1442032,23.5999238 31.7959404,23.5999238 C33.4582656,23.5999238 34.792361,22.2658284 34.802949,20.6352673 C34.802949,18.9941182 33.4582656,17.6706109 31.7959404,17.6706109 C30.1442032,17.6706109 28.7995197,18.9941182 28.7995197,20.6352673 Z M29.9959704,20.6352673 C29.9959704,19.6505778 30.8006628,18.8564734 31.7959404,18.8564734 C32.7912179,18.8564734 33.5959103,19.6505778 33.5959103,20.6352673 C33.5959103,21.6093687 32.7912179,22.4140612 31.7959404,22.4140612 C30.8006628,22.4140612 29.9959704,21.6093687 29.9959704,20.6352673 Z M31.2030091,20.6352673 C31.2030091,20.9634971 31.4677105,21.2281986 31.7959404,21.2281986 C32.1347582,21.2281986 32.3994597,20.9634971 32.3994597,20.6352673 C32.3994597,20.3070375 32.1347582,20.042336 31.7959404,20.042336 C31.4677105,20.042336 31.2030091,20.3070375 31.2030091,20.6352673 Z" id="path-1"></path>
    </defs>
    <g id="Page-1" stroke="none" stroke-width="1" fill="none" fill-rule="evenodd">
        <g id="Siphome---Dekstop-1440" transform="translate(-1010.000000, -1518.000000)">
            <g id="features" transform="translate(105.500000, 802.000000)">
                <g id="card" transform="translate(541.500000, 690.000000)">
                    <g id="Card/Plain/Align-Left" transform="translate(354.000000, 0.000000)">
                        <g id="ico-threat" transform="translate(0.000000, 16.000000)">
                            <g id="Icon/Line/Diagnostic" transform="translate(9.500000, 9.500000)">
                                <mask id="mask-2" fill="white">
                                    <use xlink:href="#path-1"></use>
                                </mask>
                                <use id="Shape" fill="#2682D6" xlink:href="#path-1"></use>
                            </g>
                        </g>
                    </g>
                </g>
            </g>
        </g>
    </g>
</svg>